<svg width="56" height="56" viewBox="0 0 56 56" fill="none" xmlns="http://www.w3.org/2000/svg">
<circle cx="29" cy="26" r="22" fill="#01DC54"/>
<g filter="url(#filter0_d_98_1603)">
<path d="M29 8C19.1 8 11 16.1 11 26C11 35.9 19.1 44 29 44C38.9 44 47 35.9 47 26C47 16.1 38.9 8 29 8Z" fill="#02461C"/>
<path d="M39.7002 32.4C39.7002 34.8 37.8002 36.7 35.4002 36.7C25.9002 36.7 18.3002 29 18.2002 19.5C18.2002 17.1 20.1002 15.2 22.5002 15.2C22.8002 15.2 23.0002 15.2 23.3002 15.3C23.7002 15.3 24.1002 15.5 24.4002 15.6L25.5002 22.6C24.9002 23.2 24.1002 23.6 23.3002 23.7C24.5002 27.4 27.5002 30.4 31.2002 31.6C31.3002 30.8 31.7002 30 32.3002 29.4L39.3002 30.5C39.5002 30.8 39.6002 31.2 39.6002 31.6C39.7002 31.9 39.7002 32.2 39.7002 32.4Z" fill="white"/>
</g>
<defs>
<filter id="filter0_d_98_1603" x="0" y="0" width="56" height="56" filterUnits="userSpaceOnUse" color-interpolation-filters="sRGB">
<feFlood flood-opacity="0" result="BackgroundImageFix"/>
<feColorMatrix in="SourceAlpha" type="matrix" values="0 0 0 0 0 0 0 0 0 0 0 0 0 0 0 0 0 0 127 0" result="hardAlpha"/>
<feOffset dx="-1" dy="2"/>
<feGaussianBlur stdDeviation="5"/>
<feComposite in2="hardAlpha" operator="out"/>
<feColorMatrix type="matrix" values="0 0 0 0 0 0 0 0 0 0 0 0 0 0 0 0 0 0 0.25 0"/>
<feBlend mode="normal" in2="BackgroundImageFix" result="effect1_dropShadow_98_1603"/>
<feBlend mode="normal" in="SourceGraphic" in2="effect1_dropShadow_98_1603" result="shape"/>
</filter>
</defs>
</svg>
