<svg width="27" height="19" viewBox="0 0 27 19" xmlns="http://www.w3.org/2000/svg">
    <g fill="#00AE42" fill-rule="nonzero">
        <path d="M20.5 12c-1.93 0-3.5 1.57-3.5 3.5s1.57 3.5 3.5 3.5 3.5-1.57 3.5-3.5-1.57-3.5-3.5-3.5zm0 5.25c-.965 0-1.75-.785-1.75-1.75s.785-1.75 1.75-1.75 1.75.785 1.75 1.75-.785 1.75-1.75 1.75zM8.5 12C6.57 12 5 13.57 5 15.5S6.57 19 8.5 19s3.5-1.57 3.5-3.5S10.43 12 8.5 12zm0 5.25c-.965 0-1.75-.785-1.75-1.75s.785-1.75 1.75-1.75 1.75.785 1.75 1.75-.785 1.75-1.75 1.75zM23.38 2.446A.884.884 0 0 0 22.6 2H18v1.618h4.061L24.439 8 26 7.273l-2.62-4.827z"/>
        <path d="M11 15h7v2h-7zM6.085 15h-3.17C2.409 15 2 15.448 2 16s.41 1 .915 1h3.17c.506 0 .915-.448.915-1s-.41-1-.915-1zM26.818 9.18l-1.701-2.13a.873.873 0 0 0-.683-.325h-6.286V.841A.853.853 0 0 0 17.283 0H2.865A.853.853 0 0 0 2 .84c0 .465.387.841.865.841h13.553v5.885c0 .464.387.84.865.84h6.727l1.26 1.577v4.336h-2.393a.853.853 0 0 0-.865.84c0 .465.387.841.865.841h3.258a.853.853 0 0 0 .865-.84V9.694a.827.827 0 0 0-.182-.515zM6.091 10H1.909C1.407 10 1 10.448 1 11s.407 1 .91 1h4.18c.503 0 .91-.448.91-1s-.407-1-.909-1zM8.146 7H.854C.383 7 0 7.448 0 8s.383 1 .854 1h7.292C8.618 9 9 8.552 9 8s-.382-1-.854-1z"/>
        <path d="M9.146 3H1.854C1.382 3 1 3.448 1 4s.383 1 .854 1h7.292C9.618 5 10 4.552 10 4s-.382-1-.854-1z"/>
    </g>
</svg>
